<svg id="Layer_1" data-name="Layer 1" xmlns="http://www.w3.org/2000/svg" viewBox="0 0 409.931 410.029">
  <defs>
    <style>
      .cls-1 {
        fill: #fff;
      }
    </style>
  </defs>
  <title>after-effects</title>
  <g>
    <path class="cls-1" d="M636,717.6H389.6c-.908-.193-1.808-.436-2.724-.572a92.546,92.546,0,0,1-79.139-91.17c-.133-75.459-.021-150.918-.06-226.377a88.213,88.213,0,0,1,2.184-19.41c9.639-43.013,48.643-72.751,91.619-72.5,74.257.438,148.518.121,222.777.123a89.244,89.244,0,0,1,13.946.818q41.873,6.59,65.157,41.966c7.845,11.888,12.112,25.127,14.24,39.12V636c-.224,1.172-.462,2.342-.671,3.517q-7.762,43.709-45.947,66.348C660.162,712.248,648.322,715.659,636,717.6Zm66.1-204.811c0-36.526.062-73.052-.043-109.578a83.2,83.2,0,0,0-4.246-27.518c-11.273-32.167-39.946-52.149-75.24-52.173q-109.778-.076-219.556.025a82.039,82.039,0,0,0-19.429,2.05c-36.256,8.848-59.943,38.723-60.027,76.438q-.245,110.777,0,221.555c.023,16.949,4.488,32.708,14.694,46.471,16.1,21.705,38.036,31.961,64.788,32q104.779.155,209.558.03c6.26,0,12.508.014,18.769-.555,25.193-2.286,44.566-14.214,58.467-35.136,8.839-13.3,12.222-28.255,12.249-44.032Q702.169,567.579,702.1,512.789Z" transform="translate(-307.669 -307.571)"/>
    <path class="cls-1" d="M446.847,398.386c15.271.314,11.763-2.331,16.178,12.1q29.936,97.836,59.618,195.749c1.686,5.539,1.513,5.776-4.435,5.8-4.8.021-9.606-.17-14.394.056-3.68.174-5.446-1.244-6.509-4.818-5.887-19.792-12.075-39.494-17.96-59.286-1.01-3.4-2.556-4.682-6.138-4.651q-26.393.232-52.788-.009c-3.731-.038-5.44,1.2-6.457,4.787-5.525,19.48-11.391,38.864-16.839,58.365-1.19,4.259-3.157,5.922-7.518,5.63-4.645-.311-9.328-.018-13.992-.1-4.359-.073-4.7-.527-3.469-4.727q10.462-35.665,20.985-71.312,19.244-65.367,38.487-130.734c2.014-6.843,2.011-6.844,9.234-6.852Q443.847,398.383,446.847,398.386Zm-.675,39.42a10.63,10.63,0,0,0-.887,1.659q-11.324,38.264-22.649,76.527c-1.031,3.461.679,3.828,3.4,3.819,13.71-.045,27.42,0,41.13-.029,4.58-.009,4.79-.349,3.393-4.915q-11.207-36.635-22.445-73.26C447.735,440.381,447.693,438.96,446.172,437.806Z" transform="translate(-307.669 -307.571)"/>
    <path class="cls-1" d="M531.8,539.432c.466-12.249-.574-24.52.6-36.755,2.312-24.052,16.09-39.7,39.8-44.741a74.825,74.825,0,0,1,36.384,1.025,45.384,45.384,0,0,1,33.257,41.484c.919,14.78.325,29.571.555,44.355.058,3.752-1.391,4.984-5.168,5.156-26.2,1.188-52.394,2.615-78.59,3.942-2.048.1-3.845.5-3.885,2.993-.109,6.92-.448,13.866,1.163,20.686a19.341,19.341,0,0,0,12.553,14.449c12.633,4.763,25.163,2.85,37.585-.948a72.646,72.646,0,0,0,15.789-6.7c3.461-2.044,5.16-1.164,6.5,2.4A114.46,114.46,0,0,0,633.3,597.69c1.213,2.423.664,3.805-1.685,5.133-17.443,9.863-36.026,14.232-56.063,12.175A71.226,71.226,0,0,1,558,611.367c-15.461-5.7-23.695-17-25.461-33.189C531.135,565.288,532.292,552.345,531.8,539.432ZM619,514.265H618.9c0-3.726.228-7.47-.045-11.176-.65-8.817-3.788-16.216-12.1-20.685-9.052-4.866-18.619-6.492-28.563-4.222-11.718,2.676-19.809,9.631-22.3,21.8-2.013,9.851-1.09,19.888-1.131,29.853-.01,2.361,1.689,2.757,3.6,2.66q7.172-.365,14.341-.767c14.208-.773,28.414-1.59,42.626-2.287,2.764-.135,3.746-1.385,3.685-4C618.931,521.72,619,517.991,619,514.265Z" transform="translate(-307.669 -307.571)"/>
  </g>
</svg>
