<svg id="Layer_1" data-name="Layer 1" xmlns="http://www.w3.org/2000/svg" viewBox="0 0 707.583 633">
  <defs>
    <style>
      .cls-1 {
        fill: #e6e6e6;
      }

      .cls-2 {
        fill: #c2c2c2;
      }

      .cls-3 {
        fill: #e1e1e1;
      }

      .cls-4 {
        fill: #f1f1f1;
      }

      .cls-5 {
        fill: #d5d5d5;
      }

      .cls-6 {
        fill: #f6f6f6;
      }

      .cls-7 {
        fill: #e8e8e8;
      }

      .cls-8 {
        fill: #f9f9f9;
      }

      .cls-9 {
        fill: #f5f5f5;
      }

      .cls-10 {
        fill: #f2f2f2;
      }

      .cls-11 {
        fill: #e5e5e5;
      }
    </style>
  </defs>
  <title>e82ec225cade768ce3bf06f9e20b9df8--the-producers-eps</title>
  <polygon class="cls-1" points="350.917 0 0.25 196.667 132.917 361.333 132.75 254.833 350.917 0"/>
  <polygon class="cls-2" points="0 196.417 1.25 633 132.917 633 132.917 361.333 0 196.417"/>
  <polygon class="cls-3" points="132.917 361.333 199.917 439.833 132.917 633 132.917 361.333"/>
  <polygon class="cls-4" points="132.917 254.833 224.083 366.5 200.083 439.833 133.083 361.333 132.917 254.833"/>
  <polygon class="cls-5" points="223.917 366.625 350.75 498.625 468.25 366.625 492.25 443.125 350.75 606.125 199.917 439.958 223.917 366.625"/>
  <polygon class="cls-6" points="132.917 254.833 223.917 366.625 350.917 0 132.917 254.833"/>
  <polygon class="cls-7" points="350.917 0 223.917 366.625 350.75 498.625 468.25 366.625 350.917 0"/>
  <polygon class="cls-8" points="350.917 0 492.25 443.125 556.917 366.625 556.917 254.833 350.917 0"/>
  <polygon class="cls-9" points="350.917 0 707.583 195.167 556.917 366.625 556.917 254.833 350.917 0"/>
  <polygon class="cls-10" points="492.25 441.938 560.917 631.813 556.917 365.438 492.25 441.938"/>
  <polygon class="cls-11" points="556.917 366.625 707.583 195.167 707.583 633 560.917 633 556.917 366.625"/>
</svg>
