<svg id="Layer_1" data-name="Layer 1" xmlns="http://www.w3.org/2000/svg" viewBox="0 0 409.931 410.029">
  <defs>
    <style>
      .cls-1 {
        fill: #fff;
      }
    </style>
  </defs>
  <title>indesign</title>
  <g>
    <path class="cls-1" d="M636,717.6H389.6c-.908-.193-1.808-.436-2.724-.572a92.546,92.546,0,0,1-79.139-91.17c-.133-75.459-.021-150.918-.06-226.377a88.213,88.213,0,0,1,2.184-19.41c9.639-43.013,48.643-72.751,91.619-72.5,74.257.438,148.518.121,222.777.123a89.244,89.244,0,0,1,13.946.818q41.873,6.59,65.157,41.966c7.845,11.888,12.112,25.127,14.24,39.12V636c-.224,1.172-.462,2.342-.671,3.517q-7.762,43.709-45.947,66.348C660.162,712.248,648.322,715.659,636,717.6ZM323.5,512.806c0,36.526-.062,73.052.042,109.578a83.211,83.211,0,0,0,4.245,27.518c11.271,32.167,39.946,52.153,75.237,52.177q109.778.076,219.556-.025a82.06,82.06,0,0,0,19.429-2.049c36.257-8.846,59.947-38.721,60.031-76.435q.246-110.777.005-221.555c-.023-16.949-4.487-32.709-14.692-46.472-16.094-21.706-38.035-31.965-64.786-32q-104.779-.156-209.558-.03c-6.26,0-12.508-.014-18.769.554-25.193,2.285-44.566,14.211-58.469,35.133-8.84,13.3-12.224,28.254-12.251,44.031Q323.43,458.017,323.5,512.806Z" transform="translate(-307.669 -307.571)"/>
    <path class="cls-1" d="M612.235,505.6q0,49.79-.007,99.579c0,5.945.625,6.623-6.279,7.373-15.637,1.7-31.257,3.479-47.014,2.817-13.638-.573-26.633-3.774-38.514-10.7-12.892-7.51-19.665-19.163-20.56-33.719a570.477,570.477,0,0,1,.017-71.908c1.115-17.217,9.843-30.22,26.045-36.741,17.973-7.233,36.523-8.167,55.1-1.7a39.36,39.36,0,0,1,5.442,2.492c2.135,1.133,2.942.457,2.891-1.808-.036-1.6,0-3.2,0-4.8,0-17.73.083-35.46-.059-53.188-.029-3.665,1.281-5.067,4.858-4.94,4.127.147,8.264,0,12.4.033,5.443.047,5.674.264,5.677,5.625q.022,36.992.008,73.984Q612.236,491.8,612.235,505.6ZM589.354,539.21q0-23.992,0-47.985a3.176,3.176,0,0,1,0-.4c.374-2.93-.911-4.622-3.614-5.856a74.134,74.134,0,0,0-33.831-6.364c-17.857.589-29.624,11.816-29.94,29.683-.339,19.188-.245,38.388-.023,57.579.113,9.741,4.479,17.368,13.039,22.412a43.286,43.286,0,0,0,20.547,5.812c9.611.4,19.151-.687,28.708-1.521,3.844-.336,5.23-1.859,5.187-5.776C589.251,570.935,589.354,555.072,589.354,539.21Z" transform="translate(-307.669 -307.571)"/>
    <path class="cls-1" d="M453.094,505.458q0,50.374,0,100.749c0,5.653-.131,5.787-5.816,5.822-4.4.027-8.8-.044-13.193-.019-2.672.015-3.917-1.234-3.814-3.911.056-1.463-.013-2.931-.013-4.4q0-87.955,0-175.911c0-7.44,0-7.423-7.24-7.753-3.06-.14-6.113-.473-9.173-.527-2.281-.041-3.536-.908-3.539-3.269,0-4.8.01-9.594-.012-14.39-.011-2.374,1.286-3.376,3.5-3.378q17.989-.023,35.978-.014c2.949,0,3.364,1.823,3.349,4.252-.06,9.461-.019,18.924-.018,28.385Q453.1,468.277,453.094,505.458Z" transform="translate(-307.669 -307.571)"/>
  </g>
</svg>
