<svg id="Layer_1" data-name="Layer 1" xmlns="http://www.w3.org/2000/svg" viewBox="0 0 450.22 450.174">
  <defs>
    <style>
      .cls-1 {
        fill: #fff;
      }
    </style>
  </defs>
  <title>marvelousdesigner</title>
  <g>
    <path class="cls-1" d="M512.99,738q-110.469,0-220.939.088c-3.309.005-4.156-.5-4.153-4.034q.177-220.939-.011-441.877c0-3.8,1.024-4.26,4.433-4.257q220.689.141,441.377,0c3.463,0,4.412.532,4.409,4.282q-.19,220.689,0,441.377c0,3.914-1.061,4.519-4.676,4.513Q623.21,737.913,512.99,738Zm-208.6-225.452q0,100.473,0,200.947c0,7.088.019,7.114,6.836,7.114q201.2.007,402.393,0c6.969,0,6.989-.02,6.99-6.961q.006-201.2,0-402.393c0-6.847-.023-6.865-7.085-6.865q-200.947-.005-401.893,0c-7.225,0-7.24.015-7.24,7.212Q304.384,412.075,304.388,512.548Z" transform="translate(-287.888 -287.915)"/>
    <path class="cls-1" d="M420.438,469.8q0,46.487,0,92.974,0,44-.011,88c0,6.609-.049,6.643-6.7,6.656-12.5.024-25-.145-37.5.082-4.4.08-5.735-1.456-5.731-5.783q.14-138.743,0-277.485c0-4.414,1.483-5.773,5.8-5.7,12.662.22,25.336.278,37.994-.034,4.558-.112,6.773,1.654,8.8,5.539q43.359,83.3,87.011,166.452c.75,1.432,1.067,3.806,2.733,3.891,2.152.109,2.331-2.507,3.126-4.024q43.379-82.728,86.552-165.564c2.415-4.65,5.108-6.47,10.347-6.308,12.154.377,24.331.258,36.493.051,4.355-.074,6.178,1.061,6.172,5.835q-.176,138.743-.013,277.485c0,4.5-1.662,5.7-5.875,5.635-12.5-.2-25-.048-37.5-.075-6.518-.014-6.561-.052-6.562-6.795q-.018-88.245-.008-176.491v-6c-5.085,9.355-9.509,17.432-13.876,25.539q-28.672,53.221-57.255,106.49c-2.059,3.852-4.514,5.554-9.007,5.367-8.318-.347-16.673-.36-24.99,0-4.564.2-6.909-1.716-8.922-5.5-12.042-22.643-24.245-45.2-36.413-67.777q-16.934-31.417-33.906-62.814Z" transform="translate(-287.888 -287.915)"/>
  </g>
</svg>
