<svg id="Layer_1" data-name="Layer 1" xmlns="http://www.w3.org/2000/svg" viewBox="0 0 409.931 410.029">
  <defs>
    <style>
      .cls-1 {
        fill: #fff;
      }
    </style>
  </defs>
  <title>photoshop</title>
  <g>
    <path class="cls-1" d="M717.6,389.6V636c-.224,1.172-.462,2.342-.671,3.517q-7.762,43.709-45.947,66.348c-10.82,6.383-22.66,9.794-34.982,11.735H389.6c-.908-.193-1.808-.436-2.724-.572a92.546,92.546,0,0,1-79.139-91.17c-.133-75.459-.021-150.918-.06-226.377a88.213,88.213,0,0,1,2.184-19.41c9.639-43.013,48.643-72.751,91.619-72.5,74.257.438,148.518.121,222.777.123a89.244,89.244,0,0,1,13.946.818q41.873,6.59,65.157,41.966C711.2,362.367,715.472,375.607,717.6,389.6ZM512.4,702.1c36.659,0,73.319.061,109.978-.042a83.24,83.24,0,0,0,27.519-4.242c32.167-11.265,52.161-39.945,52.186-75.231q.077-109.778-.024-219.556a82.108,82.108,0,0,0-2.047-19.429c-8.841-36.258-38.715-59.955-76.428-60.039q-110.777-.249-221.555-.006c-16.95.023-32.71,4.484-46.474,14.687-21.707,16.091-31.971,38.031-32.011,64.783q-.157,104.779-.03,209.558c0,6.26-.014,12.508.553,18.769,2.282,25.193,14.206,44.568,35.126,58.473,13.3,8.841,28.253,12.228,44.03,12.256Q457.808,702.17,512.4,702.1Z" transform="translate(-307.669 -307.571)"/>
    <path class="cls-1" d="M385.4,505.142q0-49.982,0-99.964c0-6.768.013-6.785,6.949-6.788,21.059-.008,42.119-.1,63.177.039,10.145.066,20.251.8,29.764,4.9,15.685,6.759,24.74,19.389,28.937,35.191a121.835,121.835,0,0,1-2.834,72.372c-6.18,17.857-20.063,26.475-37.745,30.121a68.314,68.314,0,0,1-13.93.92q-22.992-.015-45.984,0c-5.333,0-5.452.113-5.455,5.316q-.017,29.589-.012,59.179c0,5.386-.182,5.555-5.664,5.6-4,.035-8.006-.165-11.993.051-4.008.218-5.4-1.38-5.28-5.377.24-7.723.067-15.459.067-23.19Q385.4,544.328,385.4,505.142Zm22.88-34.7c0,14.917.029,29.834-.026,44.751-.01,2.737.38,4.647,3.821,4.625,16.914-.106,33.836.211,50.74-.221,11.893-.3,26.1-9.081,29.347-23.009a117.423,117.423,0,0,0,1.163-47.89c-3.006-16.865-15.136-27.262-32.258-27.593-15.843-.307-31.7-.179-47.544-.2-4.984-.008-5.232.265-5.238,5.189Q408.256,448.267,408.276,470.443Z" transform="translate(-307.669 -307.571)"/>
    <path class="cls-1" d="M598.293,616.36c-16.916-.05-30.8-2.42-42.682-11.619-8.644-6.693-14.37-15.252-16.287-26.179-.916-5.222-.582-5.957,4.486-6.353,4.644-.363,9.318-.325,13.978-.488,1.8-.063,3.021.494,3.539,2.426,3.887,14.488,15.37,18.923,28.36,20.615a41.188,41.188,0,0,0,25.929-4.708c12.275-6.867,14.574-22.6,4.662-32.626-5.076-5.135-11.369-8.357-18.052-10.772-8.517-3.078-17.123-5.911-25.7-8.824a56.862,56.862,0,0,1-24.622-15.8c-12.4-13.825-12.888-33.176-1.751-48.111a42.128,42.128,0,0,1,26.681-16.854c16.075-3.137,31.8-2.3,46.963,4.32,5.644,2.465,5.611,2.652,3.528,8.336-1.329,3.627-2.728,7.232-3.959,10.892-.855,2.543-1.855,3.405-4.585,1.824-12.732-7.374-26.247-7.194-39.785-3.014-7.329,2.263-12.285,7.353-13.185,15.48-.971,8.775,3.5,14.326,10.738,18.359,12.9,7.187,27.194,10.854,40.817,16.207,9.9,3.89,18.813,9.166,24.8,18.1,15.378,22.948,8.168,56.6-24.907,66.127A63.265,63.265,0,0,1,598.293,616.36Z" transform="translate(-307.669 -307.571)"/>
  </g>
</svg>
