<svg id="Layer_1" data-name="Layer 1" xmlns="http://www.w3.org/2000/svg" viewBox="0 0 409.931 410.029">
  <defs>
    <style>
      .cls-1 {
        fill: #fff;
      }
    </style>
  </defs>
  <title>premiere</title>
  <g>
    <path class="cls-1" d="M636,717.6H389.6c-.908-.193-1.808-.436-2.724-.572a92.546,92.546,0,0,1-79.139-91.17c-.133-75.459-.021-150.918-.06-226.377a88.213,88.213,0,0,1,2.184-19.41c9.639-43.013,48.643-72.751,91.619-72.5,74.257.438,148.518.121,222.777.123a89.244,89.244,0,0,1,13.946.818q41.873,6.59,65.157,41.966c7.845,11.888,12.112,25.127,14.24,39.12V636c-.224,1.172-.462,2.342-.671,3.517q-7.762,43.709-45.947,66.348C660.162,712.248,648.322,715.659,636,717.6ZM323.5,512.8c0,36.526-.061,73.053.042,109.579a83.215,83.215,0,0,0,4.244,27.519c11.27,32.168,39.944,52.154,75.235,52.178q109.778.076,219.556-.025a82.068,82.068,0,0,0,19.429-2.049c36.258-8.845,59.948-38.718,60.032-76.433q.247-110.777.006-221.556c-.023-16.949-4.49-32.707-14.69-46.473-16.091-21.715-38.037-31.963-64.786-32q-104.779-.16-209.558-.031c-6.26,0-12.508-.014-18.769.554-25.19,2.288-44.57,14.2-58.47,35.13-8.837,13.3-12.225,28.254-12.252,44.031Q323.43,458.015,323.5,512.8Z" transform="translate(-307.669 -307.571)"/>
    <path class="cls-1" d="M409.386,505.169q0-50.38,0-100.761c0-5.833.164-6.007,6.108-6.012,21.592-.018,43.184-.124,64.774.045,10.551.083,21.023,1.028,30.785,5.7,14.669,7.024,23.131,19.295,27.142,34.343a121.32,121.32,0,0,1-2.974,72.739c-6.264,17.832-20.246,26.406-37.975,29.785-9.626,1.835-19.408.74-29.119.884-9.994.148-19.992.028-29.988.035-5.856,0-5.871.012-5.873,5.7q-.012,29.389-.01,58.777c0,5.394-.191,5.571-5.654,5.62-4,.036-8.006-.161-11.993.05s-5.316-1.337-5.3-5.351c.134-28.255.07-56.511.069-84.767Q409.385,513.565,409.386,505.169Zm22.885-35.023c0,15.066.06,30.133-.048,45.2-.023,3.25,1.081,4.518,4.4,4.494,16.4-.122,32.8.042,49.2-.151,11.646-.137,26.94-8.351,30.385-23.363a117.749,117.749,0,0,0,1.113-47.554c-3.009-16.9-15.141-27.334-32.257-27.663-15.994-.307-32-.089-47.994-.266-3.646-.04-4.9,1.259-4.861,4.907C432.356,440.546,432.27,455.346,432.271,470.146Z" transform="translate(-307.669 -307.571)"/>
    <path class="cls-1" d="M570.187,535.436q0-35.4.007-70.793c0-5.518.182-5.675,5.535-5.7,4-.021,8,.1,12-.033,3.013-.1,4.915.573,4.616,4.149-.235,2.823,1.186,2.773,3.183,1.581,13.646-8.149,28.563-8.8,43.731-6.9,10.692,1.343,10.72,1.689,7.852,12.09-.945,3.426-.6,8.006-3.468,9.9-2.76,1.825-6.565-.9-9.975-1.294-9.622-1.1-19.111-1.64-28.184,2.83-8.364,4.121-12.514,10.528-12.473,20.044.151,34.8.061,69.593.055,104.389,0,6.247-.055,6.3-6.152,6.334q-5.2.032-10.4,0c-6.215-.031-6.321-.122-6.323-6.208Q570.176,570.632,570.187,535.436Z" transform="translate(-307.669 -307.571)"/>
  </g>
</svg>
