<svg id="Layer_1" data-name="Layer 1" xmlns="http://www.w3.org/2000/svg" viewBox="0 0 444.844 512">
  <defs>
    <style>
      .cls-1 {
        fill: #fff;
      }
    </style>
  </defs>
  <title>Quixel_Suite_2</title>
  <path class="cls-1" d="M511,257h3q107.8,62.233,215.643,124.381c4.151,2.388,5.748,5.1,5.727,9.876q-.253,57.749,0,115.5c.021,4.786-1.584,7.5-5.739,9.871-32.99,18.842-65.852,37.905-98.749,56.91-5.947,3.436-5.95,3.479-.194,6.805q49.558,28.637,99.174,57.173c3.992,2.282,5.519,4.915,5.5,9.5-.155,39-.085,78-.1,117,0,1.662-.172,3.323-.263,4.985h-2c-1.254-.814-2.474-1.686-3.767-2.432-33.267-19.212-66.592-38.326-99.756-57.714-4.393-2.568-7.607-2.246-11.82.209C583.175,729.163,548.569,749.049,514,769h-3c-1.662-1.1-3.272-2.283-4.993-3.277Q401.514,705.38,296.949,645.162c-4.606-2.647-6.434-5.552-6.422-10.971q.265-121.191,0-242.382c-.012-5.419,1.813-8.33,6.421-10.972q82.785-47.476,165.365-95.309C478.6,276.115,494.774,266.514,511,257ZM622.889,513.234c0-19.488-.079-38.977.066-58.465.029-3.972-1.329-6.422-4.8-8.414q-50.279-28.819-100.382-57.942c-3.7-2.155-6.5-1.925-10.063.15Q457.609,417.7,407.321,446.5c-3.687,2.111-4.961,4.646-4.948,8.791q.185,57.715,0,115.431c-.014,4.158,1.3,6.673,4.972,8.777q50.292,28.8,100.37,57.964c3.864,2.253,6.751,2.043,10.508-.145q49.648-28.912,99.519-57.44c3.842-2.2,5.271-4.826,5.229-9.184C622.787,551.546,622.891,532.389,622.889,513.234Z" transform="translate(-290.527 -257)"/>
</svg>
