<svg id="Layer_1" data-name="Layer 1" xmlns="http://www.w3.org/2000/svg" viewBox="0 0 903.039 902.508">
  <defs>
    <style>
      .cls-1 {
        fill: #fff;
      }
    </style>
  </defs>
  <title>unity-logo-334cbb9e5012d791-512x512</title>
  <path class="cls-1" d="M382.146,246.135c14.665-.011,29.354-.523,43.985.174,9.3.443,13.663-3.307,16.831-11.735,9.024-24.007,19.12-47.608,28.254-71.575,4.217-11.065,11.544-16.886,22.988-19.652q162.648-39.314,325.169-79.156c17.434-4.25,26.4.362,32.368,17.425Q907.459,241.05,963.065,400.523c3.244,9.26,2.556,17.211-2.508,25.618-16.849,27.972-33.113,56.3-50.023,84.231-3.5,5.783-3.206,9.841.573,15.237,16.247,23.2,31.914,46.809,48.161,70.01,5.578,7.965,7.094,15.965,5.019,25.42Q929.071,781.534,894.163,942.1c-4.32,19.793-12.633,25.642-32.774,22.188q-159.448-27.339-318.855-54.921c-9.513-1.64-19.015-3.366-28.56-4.8-10.519-1.576-17.47-7.048-21.386-17.1-9.674-24.834-20-49.416-29.451-74.332-3.041-8.017-7.157-11.254-16.034-11.108-31.987.526-63.992-.1-95.982.355-12.538.177-22.072-4.042-31.14-12.732Q198.72,673.439,76.944,557.767c-4.075-3.887-8.31-7.872-11.319-12.552-5.656-8.8-4.444-17.378,3.7-26.412,18.969-21.033,38.19-41.839,57.41-62.644q91.239-98.767,182.392-197.612c7.951-8.676,16.738-12.525,28.022-12.431C352.149,246.241,367.148,246.147,382.146,246.135ZM724.485,197.99c-2.148-.563-2.808-.958-3.376-.854q-136.56,24.976-273.116,49.973a23.993,23.993,0,0,0-14.9,8.81q-95.715,113.494-191.776,226.7c-1.876,2.217-5.472,4.521-4.289,7.347,1.518,3.624,5.884,1.925,8.986,1.927q158.991.117,317.982.222c8.206.018,12.463-2.926,16.115-10.137q68.43-135.113,137.382-269.961C719.734,207.614,721.9,203.176,724.485,197.99ZM235.9,578.244c2.128,2.347,3.589,4.122,5.216,5.729Q347.4,688.96,453.634,794c4.9,4.858,10.549,6.432,16.907,7.382q110.542,16.521,221.067,33.16c19.242,2.885,38.5,5.672,58.016,8.544.084-5.147-2.926-7.676-4.873-10.612q-81.47-122.821-162.9-245.666c-4.979-7.545-10.289-10.471-19.378-10.444-105.262.31-210.525.188-315.788.245C243.474,576.612,240.082,575.707,235.9,578.244ZM807.435,239.032c-2.053,3.681-2.9,5.075-3.632,6.528q-70.957,141.031-142.037,282c-2.983,5.9-1.3,9.758,1.789,14.5q78.832,120.981,157.532,242.048c2.08,3.193,3.36,7.21,7.821,9.382,1.067-3.394,2.153-6.467,3-9.605q34.8-128.7,69.686-257.374c1.7-6.221.915-11.589-1.1-17.407q-33.478-96.761-66.723-193.6C825.235,290.7,816.691,265.9,807.435,239.032Z" transform="translate(-62.136 -62.709)"/>
</svg>
